:SAMPLES-PER-SECOND 30
:FULLY-SPECIFIED
:DEGREES
201
root  38.2748 37.7397 -11.3022 166.079 82.3767 147.681
RightUpLeg  -51.9663 -24.0232 15.4581
RightLeg  22.4825 3.7223 1.64653
RightFoot  7.43154 2.27367 -13.3709
RightToes  0.00048216 0.542163 -0.142577
Spine  61.6131 -3.6771 7.84646
Spine1  10.9 0.437114 -0.440114
HEad  -15.0045 -3.69532 -6.84996
LeftShoulder1  10.9359 -24.366 -33.0485
LeftArm  -22.0444 -48.2172 -26.0872
LeftForeArm  15.4863 -1.70078 -4.46075
LeftHand  -0.25398 0.0180481 5.50724
RightShoulder  4.55017 14.2583 19.134
RightArm  -26.626 53.4476 12.672
RightForeArm  -5.53609 0.853894 6.94319
RightHand  -4.91086 13.5583 -29.874
LeftUpLeg  -51.7929 12.8214 -11.0365
LeftLeg  30.5707 -2.31138 -1.11999
LeftFoot  6.92692 1.30306 -8.32289
LeftToes  1.06243e-005 4.65856e-005 -8.18503e-006
202
root  37.7421 37.9812 -11.2919 162.684 81.662 147.581
RightUpLeg  -46.9062 -24.8314 12.3499
RightLeg  19.2387 2.36927 2.56855
RightFoot  9.37817 2.48947 -13.195
RightToes  0.00048216 0.542163 -0.142577
Spine  60.1977 -3.73109 7.83703
Spine1  11.5646 0.251816 -0.0363928
HEad  -10.6064 -3.50727 -7.75554
LeftShoulder1  11.4162 -23.3804 -36.2471
LeftArm  -18.2293 -38.9746 -28.4467
LeftForeArm  16.8187 -3.03153 -5.09523
LeftHand  -0.25398 0.0180481 5.50724
RightShoulder  4.91973 13.9972 21.8022
RightArm  -18.446 47.5561 18.1444
RightForeArm  -5.6647 2.73688 8.30278
RightHand  -4.50656 12.4919 -29.0964
LeftUpLeg  -48.0268 11.3099 -8.93515
LeftLeg  35.8047 0.1967 0.558179
LeftFoot  1.7924 0.923473 -7.99491
LeftToes  1.06243e-005 4.65856e-005 -8.18503e-006
203
root  37.186 38.1284 -11.3416 159.258 80.9087 147.378
RightUpLeg  -41.1036 -22.3726 6.28936
RightLeg  16.4559 -2.77531 3.6692
RightFoot  11.1343 2.61251 -12.7002
RightToes  0.00048216 0.542163 -0.142577
Spine  58.827 -3.91948 7.78646
Spine1  11.984 -0.169098 0.367802
HEad  -6.17363 -2.83705 -8.52616
LeftShoulder1  11.7069 -22.2348 -39.1855
LeftArm  -15.5703 -29.9269 -28.6701
LeftForeArm  18.1081 -4.41709 -5.65056
LeftHand  -0.25398 0.0180481 5.50724
RightShoulder  5.17676 13.8912 23.5459
RightArm  -11.6702 40.4037 22.5546
RightForeArm  -7.06066 5.29218 9.46042
RightHand  -4.14748 11.4972 -28.4
LeftUpLeg  -44.0505 9.90024 -7.60167
LeftLeg  42.0019 3.65699 3.92075
LeftFoot  -1.55849 0.446024 -5.14727
LeftToes  1.06243e-005 4.65856e-005 -8.18503e-006
204
root  36.6121 38.166 -11.4524 156.549 80.3575 147.49
RightUpLeg  -36.6056 -19.3126 1.40627
RightLeg  14.3307 -7.30192 4.57801
RightFoot  12.4564 2.59885 -11.8724
RightToes  0.00048216 0.542163 -0.142577
Spine  57.5454 -4.26082 7.8543
Spine1  11.4533 -0.598859 0.312335
HEad  -1.55239 -1.65421 -8.83327
LeftShoulder1  11.9332 -20.9649 -42.3052
LeftArm  -13.0213 -21.1166 -26.8581
LeftForeArm  19.2024 -5.81844 -6.31128
LeftHand  -0.25398 0.0180481 5.50724
RightShoulder  5.57719 13.976 25.7981
RightArm  -5.24675 32.4301 25.1651
RightForeArm  -9.6364 7.99198 10.3729
RightHand  -3.86975 10.6889 -27.8627
LeftUpLeg  -39.9546 8.68406 -6.59224
LeftLeg  47.8899 5.28841 6.6271
LeftFoot  -3.0326 0.262972 -3.40082
LeftToes  1.06243e-005 4.65856e-005 -8.18503e-006
205
root  36.0177 38.1152 -11.6119 154.785 80.32 148.123
RightUpLeg  -33.3694 -16.4343 -1.767
RightLeg  12.5165 -10.6865 5.26318
RightFoot  13.6612 2.56858 -11.113
RightToes  0.00048216 0.542163 -0.142577
Spine  55.6675 -4.51819 8.23325
Spine1  11.3134 -0.605303 -0.330577
HEad  2.60433 -0.530551 -8.91712
LeftShoulder1  12.1262 -19.8192 -45.2809
LeftArm  -10.6977 -13.5079 -23.5925
LeftForeArm  20.4746 -6.84417 -6.8887
LeftHand  -0.25398 0.0180481 5.50724
RightShoulder  5.96624 13.7504 28.57
RightArm  0.583194 24.8119 26.2206
RightForeArm  -12.3986 9.7129 10.8238
RightHand  -3.28417 9.24911 -26.0005
LeftUpLeg  -35.6058 7.6529 -5.44998
LeftLeg  52.9095 4.60185 6.95437
LeftFoot  -4.7159 0.225761 -3.439
LeftToes  1.06243e-005 4.65856e-005 -8.18503e-006
206
root  35.3887 37.9935 -11.8023 153.496 80.7927 148.927
RightUpLeg  -31.068 -14.1165 -3.46102
RightLeg  10.8482 -12.9984 5.72334
RightFoot  15.1238 2.61102 -10.6188
RightToes  0.00048216 0.542163 -0.142577
Spine  52.7804 -4.67265 8.91772
Spine1  12.5984 -0.185107 -1.56733
HEad  5.86768 0.572974 -9.16801
LeftShoulder1  12.1042 -18.7928 -47.3635
LeftArm  -9.3448 -7.57672 -20.0072
LeftForeArm  22.4046 -7.56856 -7.01429
LeftHand  -0.25398 0.0180481 5.50724
RightShoulder  6.11845 13.1377 30.7981
RightArm  2.67846 18.292 27.0724
RightForeArm  -11.8318 8.92198 11.2362
RightHand  -2.26515 6.70575 -21.8099
LeftUpLeg  -30.8681 6.92824 -4.26712
LeftLeg  56.7638 3.56108 6.37506
LeftFoot  -7.42633 0.168529 -3.57085
LeftToes  1.06243e-005 4.65856e-005 -8.18503e-006
